# xmcd
#
# Track frame offsets:
#	150
#	14697
#	31644
#	50862
#	68134
#	88390
#	106160
#	125918
#	142232
#
# Disc length: 2189 seconds
#
# Revision: 1
# Processed by: cddbd v1.5.1PL2 Copyright (c) Steve Scherf et al.
# Submitted via: audiograbber 1.83.01
#
DISCID=88088b09
DTITLE=IGOR STAROVIC - Ujed ljubavi
DYEAR=2003
DGENRE=Pop
TTITLE0=Hajde za sto
TTITLE1=Za moje drugove
TTITLE2=Kako da te kupim
TTITLE3=Crveno
TTITLE4=Odlazim
TTITLE5=Ako odes ti
TTITLE6=Ivana
TTITLE7=Kada vrata zatvorim
TTITLE8=Prevara
EXTD=
EXTT0=
EXTT1=
EXTT2=
EXTT3=
EXTT4=
EXTT5=
EXTT6=
EXTT7=
EXTT8=
PLAYORDER=
